<svg id="Layer_1" data-name="Layer 1" xmlns="http://www.w3.org/2000/svg" viewBox="0 0 41.7951 49.43183"><path d="M40.734,40.56522c-2.05835-3.00537-4.27692-5.89722-6.37079-8.87744-.42828-.5401-.70251-1.3147-1.42993-1.50287a1.40258,1.40258,0,0,0-1.57043,2.04284c1.51086,2.18525,4.38189,6.07276,6.15893,8.58765-4.85156-.73328-8.585-.875-13.572-2.25586-3.40832-.88043-7.79431-3.32916-9.09827-5.069-.21673-.29168-.40386-.57916-.57763-.86474a13.85061,13.85061,0,0,0,5.60455-7.39521c1.06458-2.47577-.359-6.21594-3.50787-5.43548-2.44354.56738-3.95545,2.82818-5.03174,4.93225a8.504,8.504,0,0,0-.64587,6.43255,6.06219,6.06219,0,0,1-7.74408-5.5357C2.19008,18.43448,5.39082,11.11142,9.37526,6.10111A21.83525,21.83525,0,0,1,12.53175,3.001c.52686-.46228,1.28815-.85779,1.25543-1.66A1.35834,1.35834,0,0,0,11.48793.38852C5.176,5.1691,1.36281,12.82852.21821,20.56906-.83916,27.129,1.88881,34.66434,9.65761,34.12943a9.44836,9.44836,0,0,0,2.124-.38007,12.03565,12.03565,0,0,0,4.89325,4.6911c4.86071,2.92462,10.51172,3.8711,16.06366,4.52118,2.419.27289,4.15252.556,5.46057.74982a40.30291,40.30291,0,0,1-4.316,2.88666c-1.00543.73211-1.22333.475-1.62055,1.37048a1.163,1.163,0,0,0,1.694,1.30225c-.61163.25543.44178-.17273.70813-.28034a19.07408,19.07408,0,0,0,4.80109-2.75262c1.023-.78821,2.255-1.678,2.32642-3.08472A4.56657,4.56657,0,0,0,40.734,40.56522ZM13.22139,30.00467a7.57577,7.57577,0,0,1,1.93731-6.25281c1.10279-1.24115,1.47016-1.18768,1.97834-1.28808l.029.00226c.6521.71545.1123,2.80041-1.91083,5.62909A8.86206,8.86206,0,0,1,13.22139,30.00467Z"/></svg>