<svg id="Layer_1" data-name="Layer 1" xmlns="http://www.w3.org/2000/svg" viewBox="0 0 47.09581 61.12735"><path d="M47.08013,37.55594a1.39493,1.39493,0,0,1-2.43854.47412,22.01138,22.01138,0,0,1-1.16022-3.40515c-1.76929-5.22327-3.39728-10.49133-5.0769-15.74353q-.329-.93264-.61328-1.6828c-1.16132,3.676-2.28095,7.36774-3.66278,10.97205-.7948,1.83044-1.17042,4.10821-2.78724,5.41278-1.51934.91461-2.66357-.89844-3.67816-1.775-1.9458-1.8106-3.8294-3.68609-5.62182-5.64917C16.10869,19.95694,9.85247,11.62393,4.05467,5.652c.19526.58307.38715,1.16718.56232,1.75592,2.28491,7.21692,4.318,14.51068,6.28888,21.81879,1.1037,4.50616,2.81818,8.96966,3.05615,13.63031.0683,2.36114-1.67639,3.449-3.62677,4.26336-2.04028.99067-5.592,2.61982-6.95141,3.51612a.8638.8638,0,0,0,.15832.06811c4.62641,2.52063,9.31122,4.94464,13.7359,7.81537a1.40883,1.40883,0,0,1-.33368,2.5531c-.71026.22272-1.30548-.28979-1.87384-.63928q-2.88345-1.83335-5.87823-3.48059c-2.18652-1.242-4.42542-2.38776-6.63043-3.59546C1.11022,52.657-.668,51.43576.43566,49.65592c.93945-1.36335,2.57531-1.99573,3.98193-2.76667,2.10785-1.14318,5.61664-2.47967,6.63379-3.38745l.02038-.0335a2.54623,2.54623,0,0,0,.08362-.35108c.10419-1.87463-.39837-3.259-.94049-5.72754-2.26794-8.54852-4.578-17.0888-7.13708-25.55554C2.17986,8.37107.61894,5.048.001,1.53159A1.53694,1.53694,0,0,1,2.33318.21884a33.3799,33.3799,0,0,1,5.178,5.0517c7.53668,8.43744,14.4812,17.43677,22.75,25.18836a.90972.90972,0,0,0,.0412-.10126c1.07794-2.551,2.92987-7.8169,4.11071-11.62787.39582-1.28143.73078-2.58173,1.15851-3.85315a3.567,3.567,0,0,1,1.21314-1.9494c1.68109-.939,2.77423,1.12042,3.26184,2.44311,1.12646,2.70911,1.93133,5.53376,2.80542,8.33039,1.00738,3.4292,2.24115,6.78405,3.31915,10.19006C46.39263,35.11655,47.21929,36.30167,47.08013,37.55594Z"/></svg>