<svg id="Layer_1" data-name="Layer 1" xmlns="http://www.w3.org/2000/svg" viewBox="0 0 37.15913 28.10376"><path d="M14.568,26.42629a1.35241,1.35241,0,0,1-.9342,1.64539c-1.02607.09558-.7052-.01581-1.56971-.4231C8.39955,25.3807,4.52822,23.48544.674,21.56741a1.39651,1.39651,0,0,1,.89074-2.57831A102.81413,102.81413,0,0,1,12.665,24.76534C13.85536,25.615,14.09908,25.41653,14.568,26.42629ZM16.96553,5.05752c-.71447-1.45081-1.381-3.56665-2.39715-4.74841a1.39715,1.39715,0,0,0-2.05274,1.80206c2.92694,5.42157,5.42816,14.05066,7.56385,19.35455a1.3385,1.3385,0,0,0,2.34014-.455c.19654-.67957-.34936-1.8805-.78808-3.335C20.16963,13.43673,18.66591,9.20736,16.96553,5.05752Zm20.00324,1.815a1.40906,1.40906,0,0,0-2.55316.33368c-.71491,3.95807-1.70008,7.86121-2.46143,11.80689a1.33209,1.33209,0,0,0,1.191,1.74951c.98383.02313,1.26953-.9726,1.45667-1.75348q.669-2.12494,1.126-4.3075c.48371-2.24609.92951-4.50012,1.38172-6.75268A1.40818,1.40818,0,0,0,36.96877,6.87252Z"/></svg>